<svg fill="#3478f6" height="64px" width="64px" version="1.1" xmlns="http://www.w3.org/2000/svg" viewBox="0 0 512 512" xmlns:xlink="http://www.w3.org/1999/xlink" enable-background="new 0 0 512 512"><g id="SVGRepo_bgCarrier" stroke-width="0"></g><g id="SVGRepo_tracerCarrier" stroke-linecap="round" stroke-linejoin="round"></g><g id="SVGRepo_iconCarrier"> <g> <g> <path fill="#3478f6" d="m79.8,294.8l54.6,54.6-42.6,42.6-46.7-46.7c-7.8-7.8-20.4-7.8-28.2,0-7.8,7.8-7.8,20.4 0,28.2l121.6,121.5c7.8,7.8 20.4,7.8 28.2,0 7.8-7.8 7.8-20.4 0-28.2l-46.7-46.7 42.6-42.6 54.6,54.6c7.8,7.8 20.4,7.8 28.2,0l186.3-186.3c31.2-31.2 31.2-81.9 0-113l-12.2-12.2 75.9-75.9c7.8-7.8 7.8-20.4 0-28.2-7.8-7.8-20.4-7.8-28.2,0l-75.9,75.9-12.2-12.2c-31.2-31.2-81.9-31.2-113,0l-186.3,186.4c-7.8,7.8-7.8,20.4-1.42109e-14,28.2zm214.4-186.3c15.6-15.6 41.1-15.6 56.7,0l52.5,52.5c15.6,15.6 15.6,41.1 0,56.7l-172.2,172.2-109.2-109.2 172.2-172.2z"></path> </g> </g> </g></svg>