<!DOCTYPE svg PUBLIC "-//W3C//DTD SVG 1.1//EN" "http://www.w3.org/Graphics/SVG/1.1/DTD/svg11.dtd">
<!-- Uploaded to: SVG Repo, www.svgrepo.com, Transformed by: SVG Repo Mixer Tools -->
<svg width="800px" height="800px" viewBox="0 0 48 48" version="1" xmlns="http://www.w3.org/2000/svg" enable-background="new 0 0 48 48" fill="#000000">
<g id="SVGRepo_bgCarrier" stroke-width="0"/>
<g id="SVGRepo_tracerCarrier" stroke-linecap="round" stroke-linejoin="round"/>
<g id="SVGRepo_iconCarrier"> <path fill="#f44336" d="M39,45H9c0,0-3-0.1-3-8h36C42,44.9,39,45,39,45z"/> <rect x="8" y="3" fill="#e0dcdc" width="32" height="34"/> <g fill="#f44336"> <rect x="18" y="15" width="16" height="2"/> <rect x="18" y="19" width="16" height="2"/> <rect x="18" y="23" width="16" height="2"/> <rect x="18" y="27" width="16" height="2"/> <rect x="18" y="31" width="16" height="2"/> </g> <g fill="#f44336"> <rect x="14" y="15" width="2" height="2"/> <rect x="14" y="19" width="2" height="2"/> <rect x="14" y="23" width="2" height="2"/> <rect x="14" y="27" width="2" height="2"/> <rect x="14" y="31" width="2" height="2"/> </g> </g>
</svg>